<?xml version="1.0" encoding="UTF-8"?>
<svg version="1.1" viewBox="0 0 2048 1538" width="1004" height="754" xmlns="http://www.w3.org/2000/svg">
<path transform="translate(202,181)" d="m0 0 29 3 19 5 23 11 14 10 16 13 14 13 1 6 3 102v31l-11 8-14 9h-2v2l11 3 42 14 41 14 66 22v115l4-1h10l4 1v-18l4-87 37 12 42 14 43 14 234 78 43 14 42 14h7l198-64 387-125 41-13 1-1-20-8-1-29-2-109v-17l10-11 5-6 14-11 16-9 18-7 24-6 27-4v13l-23 508-12 264-1 1-28-1h-69l-61 3-82 6-147 13-98 8-34 2-1-4 9-3 60-17 52-14 57-14 51-11 49-9 44-6 31-3 15-1 39-1 22 1 3-93 12-344v-19l-46 18-31 12h-2v27l-9 349-1 13-24 4-38 6-47 9-55 13-53 14-51 15-55 17-55 18-43 14-12 4-9-7-21-13-11-5-9-3-6-1h-44l-20 4-13 5-16 9-14 9-12-3-60-18-103-31-60-17-50-13-43-10-50-10-58-9-1-1-13-378v-19l-9-3-40-17-27-11v15l16 442v3h31l42 3 40 5 41 7 63 14 57 15 102 29 40 11 1 4h-14l-73-6-189-18-50-4-52-3-60-2h-77l-1-6-5-101-9-150-11-184-5-103-3-151-1-56zm266 444-11 1-6 24-14 50h61l-3-10-19-51-5-14z" fill="#FEA403"/>
<path transform="translate(520,522)" d="m0 0 7 1 96 32 41 14 201 67 41 14 18 6 11-3 48-16 336-110h3v98l-1 204-1 11-26 3-25 6-36 12-25 10-29 13-23 11-22 12-23 13-24 15-16 11-18 13-13 10-11 9-14 12-4 2-5-8-8-12-8-10-10-10-13-8-13-5-12-3-7-1h-31l-14 3-12 5-10 6-7 7-6 10-5 12-3 13-5-2-35-21-26-16-51-31-26-15-21-12-26-14-28-14-31-13-19-7-26-7-22-4-3-2-3-104-5-190z" fill="#010000"/>
<path transform="translate(614,2)" d="m0 0 9 1 18 6 26 13 21 13 16 11 16 12 11 9 3 3 1 10 2 79v41l51-19 62-23 73-27 5 1 30 12 129 52 24 10-1-42-1-87 5-5 17-13 19-14 17-11 17-10 16-8 20-8 15-4h3v20l-8 231-1 19-9-3-34-13-95-37-100-39-46-18-21-8-7 1-286 111-12 5h-3l-1-53-1-141z" fill="#FEA403"/>
<path transform="translate(1435,1076)" d="m0 0h111l14 1 12 3 16 8 10 8 9 9 8 12 6 15 2 10v21l-4 15-7 14-4 7 8 7 9 12 7 14 3 11 1 7v14l-3 15-5 12-7 11-10 11-11 8-14 7-12 3-8 1h-131zm67 56v44h38l8-4 6-7 3-9-1-9-5-8-8-6-4-1zm1 100-1 1v44h47l10-3 7-7 3-7v-10l-4-9-7-6-4-2-6-1z" fill="#FEA403"/>
<path transform="translate(231,1076)" d="m0 0h66l1 1v153l2 11 5 10 7 6 8 4 4 1h14l10-4 8-7 5-8 2-7 1-159 4-1h59l5 1v157l-2 17-4 15-8 17-8 11-9 10-9 8-13 8-13 6-14 4-15 2h-13l-15-2-16-5-16-8-11-8-15-15-9-14-6-13-4-13-2-14-1-39v-69l1-55z" fill="#FEA403"/>
<path transform="translate(482,1076)" d="m0 0h107l20 2 16 5 16 8 10 8 6 5 9 11 8 13 5 12 4 16 1 9v11l-3 19-6 16-8 14-11 13-14 11-17 9-13 4-13 2-49 1-1 67h-67zm67 57v73h48l10-3 11-8 7-11 2-6 1-9-2-11-5-10-5-6-10-6-9-3z" fill="#FEA403"/>
<path transform="translate(1045,1076)" d="m0 0h29l3 3 17 36 18 38 13 28 19 40 32 68 17 36 2 4v3h-67l-15-31v-2l-105 1-14 30-1 2h-67l1-5 19-40 13-28 16-34 13-28 14-30 16-34 26-56zm14 112-13 28-11 24v2h51l-5-12-15-32-5-10z" fill="#FEA403"/>
<path transform="translate(1229,1076)" d="m0 0h146l13 1v54l-1 1h-91v41h80l1 1v56h-81v47h91l1 1v53l-1 1h-158z" fill="#FEA403"/>
<path transform="translate(394,69)" d="m0 0 16 2 24 6 16 6 16 8 12 7 14 10 11 9 13 11 10 8v28l-4 141-12 5-99 35-17 6h-2v-117l1-111z" fill="#FEA403"/>
<path transform="translate(1450,75)" d="m0 0h4v95l-1 113-1 71-88-31-36-13-4-2v-50l2-123 19-19 11-9 18-12 17-8 15-5 17-4z" fill="#FEA403"/>
<path transform="translate(714,1076)" d="m0 0h201l1 1v65l-1 1h-67v188l-1 1h-67v-189h-66z" fill="#FEA403"/>
<path transform="translate(904,934)" d="m0 0h31l15 3 15 5 12 7 10 9 7 7 12 17 5 9v3l-3 1-9-7-21-13-11-5-9-3-6-1h-44l-20 4-13 5-16 9-11 7-1-4 4-15 7-13 9-10 9-6 8-4 13-4z" fill="#FEA403"/>
<path transform="translate(458,561)" d="m0 0h10l9 3 9 7 5 9 3 9v8l-4 13-7 9-10 6-5 1h-12l-12-6-7-8-4-10-1-11 3-12 6-9 8-6z" fill="#010000"/>
<path transform="translate(916,347)" d="m0 0h18l12 3 9 5 5 6 1 7-3 6-7 6-11 4-6 1h-18l-10-2-10-5-6-7-1-7 3-6 7-6 11-4z" fill="#FEA403"/>
</svg>
